<?xml version="1.0" encoding="iso-8859-1"?>
<!-- Generator: Adobe Illustrator 23.0.6, SVG Export Plug-In . SVG Version: 6.00 Build 0)  -->
<svg version="1.1" id="Camada_1" xmlns="http://www.w3.org/2000/svg" xmlns:xlink="http://www.w3.org/1999/xlink" x="0px" y="0px"
	 viewBox="0 0 95.616 36.482" style="enable-background:new 0 0 95.616 36.482;" xml:space="preserve">
<image style="display:none;overflow:visible;" width="218" height="135" xlink:href="E:\Artes design\Screenshot_3.png"  transform="matrix(0.6 0 0 0.6 -14.8929 -4.0268)">
</image>
<rect x="-20.893" y="-13.777" style="display:none;" width="351" height="57"/>
<path style="fill:#C88551;" d="M89.365,26.902l4.563,5.016c-0.458-3.367-2.064-11.803-8.875-19.625
	c-7.635-8.769-17.041-11.289-20.25-12L47.154,0.277l0,0h-0.012H47.13l0,0L29.482,0.293c-3.209,0.711-12.615,3.231-20.25,12
	c-6.811,7.822-8.417,16.258-8.875,19.625l4.563-5.016L3.092,32.34l5.766-6.609l-1.312,3.797l5.016-5.719l-1.406,4.125l4.219-4.781
	l-0.375,2.531l3.516-3.141l0.375,0.938l2.391-2.484l-0.254,2.147l2.707-3.444l0.281,1.656l2.813-3.188l0.594,1.406l4.25-4
	l0.32,1.063l2.016-2.484l0.383,0.984l2.531-2.469l0.375,1.313l3.906-3.406l0.242,1.16l2.008-2.41l0.504,1.629l3.187-3.351
	l3.187,3.351l0.504-1.629l2.008,2.41l0.242-1.16l3.906,3.406l0.375-1.313l2.531,2.469l0.383-0.984l2.016,2.484l0.32-1.063l4.25,4
	l0.594-1.406l2.813,3.188l0.281-1.656l2.707,3.444l-0.254-2.147l2.391,2.484l0.375-0.938l3.516,3.141l-0.375-2.531l4.219,4.781
	l-1.406-4.125l5.016,5.719l-1.313-3.797l5.766,6.609L89.365,26.902z"/>
<text transform="matrix(0.8046 0 0 1 113.3737 27.5609)" style="display:none; font-family:'Rockwell-Bold'; font-size:39.7216px;">BarberStyle</text>
</svg>
